<?xml version="1.0" encoding="UTF-8" standalone="no"?>
<!-- Created with Inkscape (http://www.inkscape.org/) -->

<svg
   width="163.50145mm"
   height="8.195034mm"
   viewBox="0 0 163.50145 8.195034"
   version="1.1"
   id="svg1"
   xml:space="preserve"
   sodipodi:docname="border2.svg"
   inkscape:version="1.3.2 (091e20e, 2023-11-25, custom)"
   xmlns:inkscape="http://www.inkscape.org/namespaces/inkscape"
   xmlns:sodipodi="http://sodipodi.sourceforge.net/DTD/sodipodi-0.dtd"
   xmlns="http://www.w3.org/2000/svg"
   xmlns:svg="http://www.w3.org/2000/svg"><sodipodi:namedview
     id="namedview1"
     pagecolor="#ffffff"
     bordercolor="#000000"
     borderopacity="0.25"
     inkscape:showpageshadow="2"
     inkscape:pageopacity="0.0"
     inkscape:pagecheckerboard="0"
     inkscape:deskcolor="#d1d1d1"
     inkscape:document-units="mm"
     showguides="true"
     inkscape:zoom="2.4920778"
     inkscape:cx="308.97912"
     inkscape:cy="15.448956"
     inkscape:window-width="2400"
     inkscape:window-height="1261"
     inkscape:window-x="-9"
     inkscape:window-y="-9"
     inkscape:window-maximized="1"
     inkscape:current-layer="layer1" /><defs
     id="defs1" /><g
     inkscape:label="Calque 1"
     inkscape:groupmode="layer"
     id="layer1"
     transform="translate(-28.130789,-73.30431)"><g
       id="g802"
       style="fill:#835c3b;fill-opacity:1"><g
         id="g798"
         style="fill:#835c3b;fill-opacity:1"><rect
           style="fill:#835c3b;fill-opacity:1;stroke-width:0.646474;stroke-opacity:0.647059"
           id="rect798-1"
           width="71.622101"
           height="0.53307259"
           x="30.32122"
           y="77.135292" /><path
           id="path798-5"
           style="fill:#835c3b;fill-opacity:1;stroke-width:0.107159;stroke-opacity:0.647059"
           d="m 31.794695,77.410725 c 0,0 -0.966359,0.19647 -1.298357,0.52458 -0.333634,0.32974 -0.542491,1.29847 -0.542491,1.29847 0,0 -0.150834,-0.97277 -0.472987,-1.3048 -0.337172,-0.34751 -1.350071,-0.53604 -1.350071,-0.53604 0,0 0.987564,-0.21101 1.324158,-0.55039 0.322408,-0.32509 0.516689,-1.27267 0.516689,-1.27267 0,0 0.134326,0.95692 0.447186,1.28545 0.341072,0.35817 1.375873,0.5554 1.375873,0.5554 z"
           sodipodi:nodetypes="cacacacac" /></g><g
         id="g799"
         transform="translate(1.3359275,-0.09555985)"
         style="fill:#835c3b;fill-opacity:1"><rect
           style="fill:#835c3b;fill-opacity:1;stroke-width:0.646474;stroke-opacity:0.647059"
           id="rect798-1-5"
           width="71.622101"
           height="0.53307259"
           x="-188.10588"
           y="77.135292"
           transform="scale(-1,1)" /><path
           id="path798-5-0"
           style="fill:#835c3b;fill-opacity:1;stroke-width:0.107159;stroke-opacity:0.647059"
           d="m 186.63241,77.410722 c 0,0 0.96636,0.19647 1.29835,0.52458 0.33364,0.32974 0.5425,1.29847 0.5425,1.29847 0,0 0.15083,-0.97277 0.47298,-1.3048 0.33717,-0.34751 1.35007,-0.53604 1.35007,-0.53604 0,0 -0.98756,-0.21101 -1.32415,-0.55039 -0.32241,-0.32509 -0.51669,-1.27267 -0.51669,-1.27267 0,0 -0.13433,0.95692 -0.44719,1.28545 -0.34107,0.35817 -1.37587,0.5554 -1.37587,0.5554 z"
           sodipodi:nodetypes="cacacacac" /></g><g
         transform="matrix(4.58845e-4,0,0,-4.1562783e-4,103.97915,83.303745)"
         fill="#000000"
         stroke="none"
         id="g2"
         style="fill:#835c3b;fill-opacity:1"><path
           d="m 12584,24045 c -253,-46 -384,-159 -446,-382 -30,-110 -30,-396 1,-688 28,-265 38,-593 22,-742 -6,-61 -24,-160 -39,-219 -27,-107 -28,-109 -62,-120 -19,-7 -123,-40 -230,-74 -844,-267 -1582,-724 -2081,-1286 -419,-472 -687,-1010 -814,-1634 -51,-248 -66,-406 -72,-722 -6,-311 2,-455 37,-688 61,-409 161,-726 416,-1322 151,-355 218,-533 259,-693 45,-174 58,-273 58,-440 -1,-266 -59,-489 -202,-775 -168,-334 -389,-632 -811,-1090 -355,-386 -564,-689 -789,-1141 -307,-617 -494,-1275 -577,-2029 -22,-198 -30,-779 -15,-992 83,-1135 474,-2136 1136,-2908 756,-882 1830,-1443 3176,-1659 377,-61 714,-89 1159,-98 1465,-27 2712,285 3689,924 1172,767 1906,2025 2066,3540 80,762 3,1575 -221,2326 -187,627 -466,1189 -826,1666 -99,130 -150,190 -346,402 -386,420 -623,743 -787,1074 -135,272 -195,506 -195,763 0,320 60,533 320,1137 113,264 174,416 231,584 200,586 265,1147 203,1761 -72,720 -325,1350 -755,1885 -116,144 -336,371 -474,486 -507,426 -1114,741 -1820,944 l -150,43 -22,65 c -33,96 -70,294 -84,442 -8,93 -9,219 -3,445 14,510 11,699 -14,802 -61,248 -200,368 -482,414 -105,17 -360,17 -456,-1 z"
           id="path1"
           style="fill:#835c3b;fill-opacity:1" /></g></g></g></svg>
